<svg fill="0" height="256" width="256" viewBox="0 0 512.08 512.08" xml:space="preserve" stroke="0" stroke-width=".005" xmlns="http://www.w3.org/2000/svg"><path style="color:#000;fill:#000;" d="M203.455 374.098h105.172a10.95 10.95 0 0 1 9.111 4.875l56.885 85.33c4.849 7.277-.367 17.022-9.111 17.023H146.568c-8.744 0-13.96-9.746-9.111-17.023l56.887-85.33a10.95 10.95 0 0 1 9.111-4.875zM186.691 68.86a10.95 10.95 0 0 1 9.147 11.359L181.64 357.813a10.94 10.94 0 0 1-1.825 5.515l-42.662 63.996c-6.236 9.347-20.822 4.36-20.033-6.847l21.582-304.704a10.95 10.95 0 0 1 3.008-6.794l35.277-36.887a10.95 10.95 0 0 1 9.703-3.233zm139.289-.15a10.95 10.95 0 0 1 7.954 3.38l35.279 36.889a10.95 10.95 0 0 1 3.006 6.753l22.742 304.704c.835 11.228-13.783 16.255-20.031 6.888l-42.668-64a10.95 10.95 0 0 1-1.823-5.469L315.086 80.264c-.345-6.26 4.626-11.53 10.894-11.553zM223.66 42.63h64.182a10.95 10.95 0 0 1 10.941 10.538l10.863 288.797c.233 6.204-4.733 11.36-10.94 11.361h-85.331c-6.2 0-11.164-5.143-10.943-11.34L212.717 53.19a10.95 10.95 0 0 1 10.943-10.558z"/><path style="color:#000;fill:#000;" d="M223.66 42.629q-335.49-63.943 0 0Zm0 0a10.953 10.953 0 0 0-10.945 10.56L202.43 341.986c-.22 6.198 4.743 11.342 10.945 11.342h85.33c6.21 0 11.176-5.158 10.943-11.363L298.785 53.168a10.953 10.953 0 0 0-10.943-10.54Zm0 .004h64.182a10.95 10.95 0 0 1 10.94 10.535l10.863 288.797c.232 6.202-4.733 11.358-10.94 11.36h-85.33c-6.199-.001-11.162-5.144-10.941-11.339L212.719 53.19c.21-5.89 5.047-10.556 10.941-10.556zm102.32 26.076c-6.27.023-11.24 5.294-10.896 11.555l15.353 277.591a10.96 10.96 0 0 0 1.823 5.471l42.668 64c3.124 4.685 8.341 5.77 12.674 4.28 4.332-1.49 7.778-5.555 7.36-11.17l-22.741-304.704a10.95 10.95 0 0 0-3.006-6.755l-35.28-36.89a10.95 10.95 0 0 0-7.955-3.378zm0 .004a10.95 10.95 0 0 1 7.952 3.379l35.279 36.888a10.95 10.95 0 0 1 3.006 6.752l22.742 304.704c.417 5.613-3.03 9.676-7.36 11.166-4.33 1.489-9.544.403-12.667-4.28l-42.668-64a10.95 10.95 0 0 1-1.823-5.467L315.088 80.264c-.345-6.258 4.625-11.528 10.892-11.551zm-141.959.031a10.96 10.96 0 0 0-7.035 3.346l-35.277 36.887a10.95 10.95 0 0 0-3.008 6.796L117.12 420.477c-.395 5.605 3.055 9.655 7.383 11.134s9.535.39 12.654-4.285l42.662-63.996a10.96 10.96 0 0 0 1.825-5.518L195.84 80.22a10.953 10.953 0 0 0-11.819-11.475zm0 .006a10.945 10.945 0 0 1 11.815 11.469l-14.197 277.594a10.94 10.94 0 0 1-1.825 5.513l-42.662 63.996c-3.117 4.672-8.322 5.762-12.648 4.283s-7.776-5.525-7.381-11.128l21.582-304.704a10.95 10.95 0 0 1 3.008-6.793l35.277-36.886a10.95 10.95 0 0 1 7.031-3.344zm19.434 305.346a10.95 10.95 0 0 0-9.113 4.875l-56.887 85.33c-4.85 7.278.367 17.026 9.113 17.027h218.944c8.746 0 13.963-9.749 9.113-17.027l-56.885-85.33a10.95 10.95 0 0 0-9.113-4.875zm0 .004h105.172c3.66 0 7.079 1.83 9.11 4.875l56.884 85.33c4.848 7.275-.367 17.018-9.11 17.02H146.569c-8.742-.002-13.957-9.745-9.109-17.02l56.887-85.33a10.95 10.95 0 0 1 9.11-4.875z"/><path style="color:#000;fill:#000;" d="m333.16 96.125 14.33 259.086 28.584 42.875-20.812-278.852z"/></svg>